<svg xmlns="http://www.w3.org/2000/svg" viewBox="0 0 720 360">
  <g fill="none" stroke="#dde4ec" stroke-width="2" stroke-linecap="round">

    <!-- outer dashed triangle -->
    <path d="M180 30 L40 290 L320 290 Z" stroke-dasharray="4 5"/>

    <!-- main wireframe triangle (apex fan + crossing lattice) -->
    <path d="M180 60 L70 260 L290 260 Z"/>

    <!-- fan from apex to base points -->
    <path d="M180 60 L100 260"/>
    <path d="M180 60 L130 260"/>
    <path d="M180 60 L160 260"/>
    <path d="M180 60 L200 260"/>
    <path d="M180 60 L230 260"/>
    <path d="M180 60 L260 260"/>

    <!-- left edge points to right edge points (crossing lattice) -->
    <path d="M110 175 L255 130"/>
    <path d="M125 210 L270 165"/>
    <path d="M95 140 L240 95"/>
    <path d="M140 245 L285 200"/>

    <path d="M250 175 L105 130"/>
    <path d="M235 210 L90 165"/>
    <path d="M265 140 L120 95"/>
    <path d="M220 245 L75 200"/>

    <!-- horizontal rungs -->
    <path d="M85 220 L275 220"/>
    <path d="M105 175 L255 175"/>
    <path d="M125 130 L235 130"/>

  </g>

  <!-- filled center triangle, subdivided -->
  <g>
    <path d="M180 145 L120 245 L240 245 Z" fill="#4a90d9" stroke="#dde4ec" stroke-width="2"/>
    <path d="M180 145 L180 245 M120 245 L240 195 M240 245 L120 195" stroke="#dde4ec" stroke-width="1.5" fill="none"/>
  </g>

  <!-- wordmark -->
  <text x="350" y="225" font-family="'Space Grotesk', sans-serif" font-size="92" font-weight="700" fill="#f4f4f2">Envis<tspan font-weight="500" fill="#c4d2e0">Labs</tspan></text>
</svg>
